<?xml version="1.0" encoding="UTF-8"?><svg id="Layer_1" xmlns="http://www.w3.org/2000/svg" viewBox="0 0 128 128"><defs><style>.cls-1{fill:#f6f0e6;}</style></defs><path class="cls-1" d="M63.66,95.2c4.06,4.06.33,10.69-5.68,9.32-3.95-.9-7.98-2.84-11.95-3.82-1.97-.11-2.98,3.09-1.02,3.99,4.77.95,11.02,4.66,15.83,4.18,5.72-.57,9.88-6.69,8.24-12.2l13.75-7.71c6.32-2.01,10.54,6.12,4.85,10.12-10.56,5.31-20.63,11.68-31.19,16.98-9.49,4.76-10.8,1.77-19.83-.51-3.33-.84-5.75-.78-9.03.27l-11.79-20.59c4.31-2.01,8.53-5.1,12.88-6.95,4.99-2.12,8.79-1.94,13.91-.52,5.4,1.49,13.94,3.97,18.94,6.15.69.3,1.58.76,2.1,1.28Z"/><path class="cls-1" d="M112.17,32.89c-3.65,1.6-6.98,3.88-10.53,5.65-6.07,3.04-9.64,3.52-16.25,1.69-5.39-1.49-13.95-3.98-18.94-6.15-6.67-2.9-3.75-12.28,3.58-10.6,3.95.9,7.98,2.84,11.95,3.82,2.19-.22,2.99-2.98.84-4.07-1.71-.87-11.59-3.96-13.43-4.13-6.98-.65-12.32,5.8-10.43,12.51l-12.94,7.02c-6.48,3.24-11.82-5.4-5.69-9.71,10.56-5.32,20.64-11.67,31.19-16.98,9.48-4.78,10.82-1.76,19.83.51,3.37.85,5.7.74,9.03-.27l11.79,20.71Z"/><path class="cls-1" d="M55.22,46.19v13.92c0,.4,1.11,1.43,1.65,1.36,4.44-.28,9.42.42,13.79.03.72-.07,2.12-.56,2.12-1.39v-13.92h9.03v35.62h-35.62v-35.62h9.03Z"/><path class="cls-1" d="M8.24,92.65c.37-.07.72-.12,1.06.08l17.01,29.16c.18.89.1,1.25-.57,1.82-.5.43-6.88,4.1-7.33,4.21s-.94.11-1.4,0L.09,98.94l.3-1.83c2.12-.76,5.9-4.06,7.85-4.45Z"/><path class="cls-1" d="M109.58.08c.46-.11.94-.11,1.4,0l16.92,28.99-.3,1.84-7.85,4.45-1.06-.08-17.01-29.16c-.2-.74-.08-1.39.57-1.82L109.58.08Z"/><polygon class="cls-1" points="68.77 46.19 68.77 57.1 68.39 57.48 59.61 57.48 59.23 57.1 59.23 46.19 68.77 46.19"/><path class="cls-1" d="M64,37.41l-5.41,2.73c-1.38.17-3.06-.19-4.12-1.11l6.4-3.83,3.13,2.2Z"/><path class="cls-1" d="M64,90.59l5.41-2.73c1.38-.17,3.06.19,4.12,1.11l-6.4,3.83-3.13-2.2Z"/></svg>