<?xml version="1.0" encoding="UTF-8"?>
<svg id="Layer_1" xmlns="http://www.w3.org/2000/svg" version="1.1" viewBox="0 0 128 128">
  <!-- Generator: Adobe Illustrator 29.6.1, SVG Export Plug-In . SVG Version: 2.1.1 Build 9)  -->
  <defs>
    <style>
      .st0 {
        fill: #0ab39c;
      }
    </style>
  </defs>
  <path class="st0" d="M63.7,95.2c4.1,4.1.3,10.7-5.7,9.3-4-.9-8-2.8-12-3.8-2-.1-3,3.1-1,4,4.8.9,11,4.7,15.8,4.2,5.7-.6,9.9-6.7,8.2-12.2l13.8-7.7c6.3-2,10.5,6.1,4.8,10.1-10.6,5.3-20.6,11.7-31.2,17-9.5,4.8-10.8,1.8-19.8-.5-3.3-.8-5.8-.8-9,.3l-11.8-20.6c4.3-2,8.5-5.1,12.9-6.9,5-2.1,8.8-1.9,13.9-.5,5.4,1.5,13.9,4,18.9,6.2.7.3,1.6.8,2.1,1.3h0Z"/>
  <path class="st0" d="M112.2,32.9c-3.7,1.6-7,3.9-10.5,5.7-6.1,3-9.6,3.5-16.2,1.7-5.4-1.5-13.9-4-18.9-6.2-6.7-2.9-3.8-12.3,3.6-10.6,3.9.9,8,2.8,11.9,3.8,2.2-.2,3-3,.8-4.1-1.7-.9-11.6-4-13.4-4.1-7-.6-12.3,5.8-10.4,12.5l-12.9,7c-6.5,3.2-11.8-5.4-5.7-9.7,10.6-5.3,20.6-11.7,31.2-17,9.5-4.8,10.8-1.8,19.8.5,3.4.9,5.7.7,9-.3l11.8,20.7Z"/>
  <path class="st0" d="M55.2,46.2v13.9c0,.4,1.1,1.4,1.7,1.4,4.4-.3,9.4.4,13.8,0,.7,0,2.1-.6,2.1-1.4v-13.9h9v35.6h-35.6v-35.6s9,0,9,0Z"/>
  <path class="st0" d="M8.2,92.7c.4,0,.7-.1,1.1,0l17,29.2c.2.9.1,1.2-.6,1.8-.5.4-6.9,4.1-7.3,4.2s-.9.1-1.4,0L0,98.9l.3-1.8c2.1-.8,5.9-4.1,7.8-4.4h0Z"/>
  <path class="st0" d="M109.6,0c.5-.1.9-.1,1.4,0l16.9,29-.3,1.8-7.8,4.5h-1.1c0,0-17-29.2-17-29.2-.2-.7,0-1.4.6-1.8L109.6,0Z"/>
  <polygon class="st0" points="68.8 46.2 68.8 57.1 68.4 57.5 59.6 57.5 59.2 57.1 59.2 46.2 68.8 46.2"/>
  <path class="st0" d="M64,37.4l-5.4,2.7c-1.4.2-3.1-.2-4.1-1.1l6.4-3.8,3.1,2.2h0Z"/>
  <path class="st0" d="M64,90.6l5.4-2.7c1.4-.2,3.1.2,4.1,1.1l-6.4,3.8-3.1-2.2h0Z"/>
</svg>