<?xml version="1.0" encoding="UTF-8"?>
<svg id="Layer_1" xmlns="http://www.w3.org/2000/svg" version="1.1" viewBox="0 0 128 128">
  <!-- Generator: Adobe Illustrator 29.6.1, SVG Export Plug-In . SVG Version: 2.1.1 Build 9)  -->
  <defs>
    <style>
      .st0 {
        fill: #0ab39c;
      }
    </style>
  </defs>
  <path class="st0" d="M12.2,29.4h1.6l66.3,65.8c10.2,8.6,29.3,3.4,42,4.8,5.7.6,6.2,6.1,5.9,10.7-.5,6.5-5.3,11.5-11.8,12.1-13.8-1.6-33.8,4-45.4-4.9L1.2,48.5c-1.9-3.2-1.5-6.2.8-9.1,2.9-3.5,7.1-6.7,10.2-10Z"/>
  <path class="st0" d="M60.1,31.9c3.6-.6,4.1-3.6,5.8-5.9,3.3-4.2,9.2-5.4,13.9-2.8,4.6,2.6,5.8,9.4,7.4,14l-14.8,14.8-.7,1.4c.2,2.4,1.9,3.3,3.9,1.9,4.2-2.8,8.6-9.8,12.7-12.7.2-.2.3-.4.7-.3l4.8,13.8-10.2,10.8c-.4,2.2,1.4,3.7,3.4,2.5,2.4-1.4,5.6-6.4,8.2-8.1.2-.2.3-.4.7-.3,4.8,12.6,12.4,24,21.1,34.2h-25.8c-2.1,0-5.9-1.9-7.6-3.3l-31-30.9,1.8-29.3c1.7-.2,3.9.3,5.6,0h0Z"/>
  <path class="st0" d="M48.3,56.7l-32-31.1.3-.7c6.1-5.2,11.6-12.8,17.7-17.7,6.7-5.4,15.9-1.2,16.8,7.2,0,0-2.8,42.3-2.8,42.3Z"/>
  <path class="st0" d="M69.4,122.8H1.6c-1-.5-1.7-1.2-1.6-2.4l1-1.6,1.4-.6,62.2.3,4.7,4.3Z"/>
  <path class="st0" d="M1.7,100.1h35.1c3,.3,2.7,4.2-.3,4.5H2.5c-2.6-.3-3.4-3.5-.8-4.5Z"/>
</svg>