<?xml version="1.0" encoding="UTF-8"?><svg id="Layer_1" xmlns="http://www.w3.org/2000/svg" viewBox="0 0 128 128"><defs><style>.cls-1{fill:#f6f0e6;}</style></defs><path class="cls-1" d="M12.22,29.43h1.59s66.28,65.76,66.28,65.76c10.16,8.63,29.27,3.4,41.97,4.84,5.7.64,6.19,6.08,5.86,10.7-.46,6.52-5.33,11.53-11.85,12.11-13.82-1.59-33.79,3.98-45.39-4.86L1.22,48.55c-1.9-3.22-1.54-6.23.8-9.07,2.86-3.47,7.1-6.7,10.2-10.05Z"/><path class="cls-1" d="M60.11,31.93c3.62-.57,4.06-3.61,5.84-5.85,3.35-4.2,9.15-5.41,13.9-2.75,4.62,2.58,5.82,9.39,7.37,14.02l-14.85,14.79-.65,1.37c.15,2.37,1.91,3.26,3.93,1.9,4.17-2.81,8.57-9.79,12.72-12.66.24-.17.28-.4.71-.28l4.76,13.82-10.17,10.84c-.38,2.16,1.43,3.65,3.39,2.52,2.44-1.4,5.63-6.37,8.15-8.1.24-.17.28-.4.72-.28,4.75,12.59,12.42,23.99,21.13,34.19h-25.83c-2.09,0-5.93-1.93-7.57-3.27l-30.96-30.92,1.85-29.34c1.72-.19,3.92.26,5.57,0Z"/><path class="cls-1" d="M48.27,56.72l-31.97-31.06.28-.71c6.09-5.16,11.59-12.75,17.7-17.66,6.72-5.4,15.93-1.16,16.81,7.16l-2.82,42.27Z"/><path class="cls-1" d="M69.39,122.81H1.6c-.96-.5-1.69-1.22-1.57-2.4l.99-1.6,1.43-.57,62.25.28,4.69,4.29Z"/><path class="cls-1" d="M1.66,100.08l35.06-.07c2.99.34,2.68,4.23-.29,4.57H2.45c-2.64-.31-3.36-3.53-.79-4.5Z"/></svg>