<?xml version="1.0" encoding="UTF-8"?><svg id="Layer_1" xmlns="http://www.w3.org/2000/svg" viewBox="0 0 128 128"><defs><style>.cls-1{fill:#f6f0e6;}</style></defs><path class="cls-1" d="M69.04,24.9c.07.75.01.46-.42.56-6.04,1.36-11.92,4.77-17.78,6.33-3.66.97-8.65.23-10.21,4.53-2.17,5.99,4.39,11.47,9.87,12.08,5.45.61,11.1-1.57,16.4-1.69,3.21-.07,5.19,1.37,7.65,3.15,9.73,7.01,18.78,15.7,28.51,22.81,4.93,4.25-.65,12.48-6.38,10.07-4.5-2.96-8.9-7.96-13.37-10.72-.36-.22-.97-.59-1.37-.59-1.59.46-2.32,1.48-1.27,2.95,1.53,2.16,6.72,5.15,8.92,7.24.93.89,1.69,1.58,1.86,2.96.64,5.15-4.36,9.73-9.05,6.5-3.26-2.24-6.22-5.69-9.8-7.47-5.17,1.95,3.12,6.26,4.96,8.06,4.96,4.83-1.44,12.62-6.38,10.07-1.7-.88-6.69-6.13-8.16-5.91-.26.04-.55.23-.77.39-3.62,2.68,5.51,5.6,5.69,8.49s-2.55,6.02-5.52,5.81c-2.05-.14-4.52-3.18-6.29-4.23,3.33-5.46.06-12.52-6.08-13.62,1.8-6.85-3.84-13.31-10.77-12.75.58-6.01-5.03-11.34-11.06-10.49.91-8.09-9.09-14.46-15.45-8.51l-2.34-2.68,25.16-32.9c11.1,1.02,22.59-3.59,33.45-.41Z"/><path class="cls-1" d="M92.22,25.23c.42-.05.68,0,.92.37l24.55,32.73c-2.52,3.55-6.82,6.67-10.75,8.57-.88.42-3.09,1.57-3.86,1.22l-26.12-20.95c-7.31-7.3-15.67-2.21-23.96-2.18-3.49.01-9.48-2.41-9.2-6.63.18-2.75,5.04-2.33,7.12-2.83,5.4-1.3,11.34-4.58,16.77-6.19,6.63-1.96,13.88-1.06,20.53-2.72,1.18-.29,3.13-1.32,4-1.41Z"/><path class="cls-1" d="M22.19,17.6c1.95-.34,3.14.13,4.8,1.02.88.47,5.87,3.98,5.74,4.68L7.42,55.78c-3.91-3.42-9.04-5.79-6.92-11.97,1.49-4.31,11.31-16.46,14.69-20.47,1.58-1.88,4.53-5.32,7-5.75Z"/><path class="cls-1" d="M103.83,17.6c4.52-.71,7.33,3.4,9.83,6.48,3.31,4.09,11.79,14.68,13.55,19.05,2.69,6.69-1.96,8.97-6.48,12.63l-24.93-32.56.15-.73c2.41-1.49,5.02-4.43,7.89-4.88Z"/><path class="cls-1" d="M17.37,62.1c5.03-.85,9.63,5.32,6.02,9.99-.73.94-5.18,5.74-5.96,6.23-2.53,1.59-6.38-.24-7.88-2.58-2.63-4.13.54-6.93,3.21-9.74,1.01-1.07,3.3-3.68,4.61-3.9Z"/><path class="cls-1" d="M29.01,72.88c3.09-.36,6.42,2.46,6.79,5.54.33,2.71-.98,3.88-2.62,5.74-.95,1.08-3.29,3.73-4.25,4.54-4.25,3.54-12.01-3.15-8.37-8.37.97-1.39,4.24-4.92,5.53-6.09.73-.66,1.93-1.24,2.91-1.35Z"/><path class="cls-1" d="M38.91,83.64c5.17-1.17,10.25,4.76,6.88,9.44-.75,1.03-4.67,5.2-5.66,5.96-4.81,3.67-11.12-2-9-7.3.31-.77,5.86-6.81,6.72-7.45.35-.26.58-.53,1.06-.64Z"/><path class="cls-1" d="M48.24,95.83c3.23.42,6.97,3.95,5.42,7.39-.43.96-4.01,4.75-4.95,4.97-3.5.76-7.52-2.76-6.33-6.33l5.86-6.02Z"/></svg>