<?xml version="1.0" encoding="UTF-8"?>
<svg id="Layer_1" xmlns="http://www.w3.org/2000/svg" version="1.1" viewBox="0 0 128 128">
  <!-- Generator: Adobe Illustrator 29.6.1, SVG Export Plug-In . SVG Version: 2.1.1 Build 9)  -->
  <defs>
    <style>
      .st0 {
        fill: #0ab39c;
      }
    </style>
  </defs>
  <path class="st0" d="M69,24.9c0,.8,0,.5-.4.6-6,1.4-11.9,4.8-17.8,6.3-3.7,1-8.7.2-10.2,4.5-2.2,6,4.4,11.5,9.9,12.1,5.5.6,11.1-1.6,16.4-1.7,3.2,0,5.2,1.4,7.7,3.2,9.7,7,18.8,15.7,28.5,22.8,4.9,4.2-.7,12.5-6.4,10.1-4.5-3-8.9-8-13.4-10.7-.4-.2-1-.6-1.4-.6-1.6.5-2.3,1.5-1.3,2.9,1.5,2.2,6.7,5.2,8.9,7.2.9.9,1.7,1.6,1.9,3,.6,5.2-4.4,9.7-9.1,6.5-3.3-2.2-6.2-5.7-9.8-7.5-5.2,1.9,3.1,6.3,5,8.1,5,4.8-1.4,12.6-6.4,10.1-1.7-.9-6.7-6.1-8.2-5.9-.3,0-.5.2-.8.4-3.6,2.7,5.5,5.6,5.7,8.5s-2.6,6-5.5,5.8c-2-.1-4.5-3.2-6.3-4.2,3.3-5.5,0-12.5-6.1-13.6,1.8-6.8-3.8-13.3-10.8-12.8.6-6-5-11.3-11.1-10.5.9-8.1-9.1-14.5-15.4-8.5l-2.3-2.7,25.2-32.9c11.1,1,22.6-3.6,33.5-.4h0Z"/>
  <path class="st0" d="M92.2,25.2c.4,0,.7,0,.9.4l24.6,32.7c-2.5,3.5-6.8,6.7-10.8,8.6-.9.4-3.1,1.6-3.9,1.2l-26.1-21c-7.3-7.3-15.7-2.2-24-2.2-3.5,0-9.5-2.4-9.2-6.6.2-2.8,5-2.3,7.1-2.8,5.4-1.3,11.3-4.6,16.8-6.2,6.6-2,13.9-1.1,20.5-2.7,1.2-.3,3.1-1.3,4-1.4h0Z"/>
  <path class="st0" d="M22.2,17.6c2-.3,3.1.1,4.8,1,.9.5,5.9,4,5.7,4.7L7.4,55.8c-3.9-3.4-9-5.8-6.9-12,1.5-4.3,11.3-16.5,14.7-20.5,1.6-1.9,4.5-5.3,7-5.8h0Z"/>
  <path class="st0" d="M103.8,17.6c4.5-.7,7.3,3.4,9.8,6.5,3.3,4.1,11.8,14.7,13.6,19,2.7,6.7-2,9-6.5,12.6l-24.9-32.6.2-.7c2.4-1.5,5-4.4,7.9-4.9h0Z"/>
  <path class="st0" d="M17.4,62.1c5-.8,9.6,5.3,6,10-.7.9-5.2,5.7-6,6.2-2.5,1.6-6.4-.2-7.9-2.6-2.6-4.1.5-6.9,3.2-9.7,1-1.1,3.3-3.7,4.6-3.9Z"/>
  <path class="st0" d="M29,72.9c3.1-.4,6.4,2.5,6.8,5.5.3,2.7-1,3.9-2.6,5.7-1,1.1-3.3,3.7-4.2,4.5-4.2,3.5-12-3.2-8.4-8.4,1-1.4,4.2-4.9,5.5-6.1.7-.7,1.9-1.2,2.9-1.3h0Z"/>
  <path class="st0" d="M38.9,83.6c5.2-1.2,10.2,4.8,6.9,9.4-.8,1-4.7,5.2-5.7,6-4.8,3.7-11.1-2-9-7.3.3-.8,5.9-6.8,6.7-7.4.3-.3.6-.5,1.1-.6h0Z"/>
  <path class="st0" d="M48.2,95.8c3.2.4,7,3.9,5.4,7.4-.4,1-4,4.8-5,5-3.5.8-7.5-2.8-6.3-6.3l5.9-6h0Z"/>
</svg>