<?xml version="1.0" encoding="UTF-8"?><svg id="Layer_1" xmlns="http://www.w3.org/2000/svg" viewBox="0 0 128 128"><defs><style>.cls-1{fill:#f6f0e6;}</style></defs><path class="cls-1" d="M54.97,128.01h-2c-2.86-1.46-3.54-3.03-2.45-6.07,1.26-3.5,5.81-12.56,7.85-15.67,2.78-4.21,8.16-2.01,7.51,2.75-2.99,5.04-5.22,12.36-8.45,17.07-.67.97-1.43,1.42-2.46,1.92Z"/><path class="cls-1" d="M91.04,128.01h-2c-2.24-.96-3.55-2.72-2.89-5.26,3.14-4.92,5.22-12.16,8.44-16.83,2.56-3.72,7.93-1.48,7.37,2.84l-8.71,17.58-2.21,1.67Z"/><path class="cls-1" d="M18.89,128.01h-2c-2.3-1.16-3.49-2.89-2.62-5.49,1.76-5.26,6.2-11.18,8.28-16.49,2.49-3.93,8.28-1.58,7.31,3.05-3.12,5.01-5.26,12.28-8.5,17.02-.67.97-1.43,1.42-2.46,1.92Z"/><path class="cls-1" d="M79.03,17.23c10.68-3.32,22.37,1.49,27.84,11.09,2.18,3.82,2.98,7.82,3.32,12.19,14.62,2.97,22.35,19.24,14.97,32.41-3.48,6.21-9.87,10.29-16.94,11.09H25.52c-7.53-.73-14.72-4.47-19.4-10.39C-6.73,57.36,1.68,33.3,21.84,28.94c.42-2.28.53-4.49,1.13-6.75,1.61-6.15,5.47-11.9,10.48-15.8C48.68-5.5,71.06-.22,79.03,17.23Z"/><path class="cls-1" d="M85.47,90.05c3.25-.45,5.16,2.74,4.19,5.7-.77,2.35-7.1,14.98-8.53,16.74-2.84,3.48-8.18.71-6.88-3.87.65-2.29,6.87-14.61,8.32-16.7.61-.88,1.84-1.72,2.91-1.87Z"/><path class="cls-1" d="M13.58,90.06c2.94-.29,5.24,2.79,4.07,5.58l-8.67,17.1c-3.65,3.12-8.22.08-6.57-4.56,1.14-3.2,6.12-13.26,8-16.02.73-1.07,1.84-1.98,3.16-2.11Z"/><path class="cls-1" d="M49.65,90.06c3.07-.3,4.94,2.64,4,5.51-1.71,5.27-6.3,11.33-8.35,16.67-2.8,3.85-8.53.96-7.07-3.55,1.75-5.39,6.46-11.54,8.5-17.02.6-.81,1.93-1.51,2.92-1.61Z"/><path class="cls-1" d="M111.18,112.92c-1.09-1.03-1.34-2.76-.97-4.17,3.14-4.92,5.22-12.16,8.44-16.83,2.65-3.84,8.16-1.36,7.17,3.4l-8.5,17.02c-1.43,2.02-4.36,2.26-6.14.58Z"/></svg>