<?xml version="1.0" encoding="UTF-8"?>
<svg id="Layer_1" xmlns="http://www.w3.org/2000/svg" version="1.1" viewBox="0 0 128 128">
  <!-- Generator: Adobe Illustrator 29.6.1, SVG Export Plug-In . SVG Version: 2.1.1 Build 9)  -->
  <defs>
    <style>
      .st0 {
        fill: #0ab39c;
      }
    </style>
  </defs>
  <path class="st0" d="M55,128h-2c-2.9-1.5-3.5-3-2.5-6.1,1.3-3.5,5.8-12.6,7.8-15.7,2.8-4.2,8.2-2,7.5,2.8-3,5-5.2,12.4-8.5,17.1-.7,1-1.4,1.4-2.5,1.9Z"/>
  <path class="st0" d="M91,128h-2c-2.2-1-3.6-2.7-2.9-5.3,3.1-4.9,5.2-12.2,8.4-16.8,2.6-3.7,7.9-1.5,7.4,2.8l-8.7,17.6s-2.2,1.7-2.2,1.7Z"/>
  <path class="st0" d="M18.9,128h-2c-2.3-1.2-3.5-2.9-2.6-5.5,1.8-5.3,6.2-11.2,8.3-16.5,2.5-3.9,8.3-1.6,7.3,3.1-3.1,5-5.3,12.3-8.5,17-.7,1-1.4,1.4-2.5,1.9h0Z"/>
  <path class="st0" d="M79,17.2c10.7-3.3,22.4,1.5,27.8,11.1,2.2,3.8,3,7.8,3.3,12.2,14.6,3,22.3,19.2,15,32.4-3.5,6.2-9.9,10.3-16.9,11.1H25.5c-7.5-.7-14.7-4.5-19.4-10.4C-6.7,57.4,1.7,33.3,21.8,28.9c.4-2.3.5-4.5,1.1-6.8,1.6-6.1,5.5-11.9,10.5-15.8C48.7-5.5,71.1-.2,79,17.2Z"/>
  <path class="st0" d="M85.5,90.1c3.2-.4,5.2,2.7,4.2,5.7-.8,2.3-7.1,15-8.5,16.7-2.8,3.5-8.2.7-6.9-3.9s6.9-14.6,8.3-16.7c.6-.9,1.8-1.7,2.9-1.9h0Z"/>
  <path class="st0" d="M13.6,90.1c2.9-.3,5.2,2.8,4.1,5.6l-8.7,17.1c-3.7,3.1-8.2,0-6.6-4.6,1.1-3.2,6.1-13.3,8-16,.7-1.1,1.8-2,3.2-2.1h0Z"/>
  <path class="st0" d="M49.7,90.1c3.1-.3,4.9,2.6,4,5.5-1.7,5.3-6.3,11.3-8.3,16.7-2.8,3.8-8.5,1-7.1-3.6,1.8-5.4,6.5-11.5,8.5-17,.6-.8,1.9-1.5,2.9-1.6Z"/>
  <path class="st0" d="M111.2,112.9c-1.1-1-1.3-2.8-1-4.2,3.1-4.9,5.2-12.2,8.4-16.8,2.7-3.8,8.2-1.4,7.2,3.4l-8.5,17c-1.4,2-4.4,2.3-6.1.6Z"/>
</svg>