<?xml version="1.0" encoding="UTF-8"?><svg id="Layer_1" xmlns="http://www.w3.org/2000/svg" viewBox="0 0 128 128"><defs><style>.cls-1{fill:#f6f0e6;}</style></defs><path class="cls-1" d="M45.84,19.05c2.46,20.83,15.13,39.85,34.59,48.26,3.35,1.45,6.51,2.28,9.98,3.29.38.11.8-.19.67.46-21.15,4.55-36.74,20.44-43.02,40.85l-2.66,10.88c-2.49-18.14-12.49-35.91-28.59-45.19-5.29-3.05-10.32-4.68-16.13-6.36-.38-.11-.8.19-.67-.46,25.32-5.5,41.54-26.29,45.25-51.3.07-.5-.15-.48.57-.43Z"/><path class="cls-1" d="M87.34.6c1.17,9.4,7.16,18.43,15.48,23,2.89,1.59,5.5,2.28,8.59,3.22.41.12.51-.18.43.58-11.17,2-19.98,10.42-23.43,21.1-.5,1.55-.71,3.12-1.07,4.69-.1.44.19.5-.57.43-1.6-11.44-9.02-20.89-19.81-25-1.41-.54-2.83-.8-4.26-1.22-.42-.12-.5.16-.42-.58,9.51-1.6,17.92-8.47,21.86-17.19,1.26-2.79,1.96-5.63,2.64-8.61.1-.45-.19-.5.57-.43Z"/><path class="cls-1" d="M103.48,74.37c1.17,9.4,7.16,18.43,15.48,23,2.89,1.59,5.5,2.28,8.59,3.22.41.12.51-.18.43.58-11.17,2-19.98,10.42-23.43,21.1-.5,1.55-.71,3.12-1.07,4.69-.1.44.19.5-.57.43-1.6-11.44-9.02-20.89-19.81-25-1.41-.54-2.83-.8-4.26-1.22-.42-.12-.5.16-.42-.58,9.51-1.6,17.92-8.47,21.86-17.19,1.26-2.79,1.96-5.63,2.64-8.61.1-.45-.19-.5.57-.43Z"/></svg>