<?xml version="1.0" encoding="UTF-8"?>
<svg id="Layer_1" xmlns="http://www.w3.org/2000/svg" version="1.1" viewBox="0 0 128 128">
  <!-- Generator: Adobe Illustrator 29.6.1, SVG Export Plug-In . SVG Version: 2.1.1 Build 9)  -->
  <defs>
    <style>
      .st0 {
        fill: #0ab39c;
      }
    </style>
  </defs>
  <path class="st0" d="M45.8,19c2.5,20.8,15.1,39.8,34.6,48.3,3.3,1.4,6.5,2.3,10,3.3.4.1.8-.2.7.5-21.2,4.6-36.7,20.4-43,40.8l-2.7,10.9c-2.5-18.1-12.5-35.9-28.6-45.2-5.3-3.1-10.3-4.7-16.1-6.4-.4-.1-.8.2-.7-.5,25.3-5.5,41.5-26.3,45.2-51.3,0-.5-.2-.5.6-.4h0Z"/>
  <path class="st0" d="M87.3.6c1.2,9.4,7.2,18.4,15.5,23,2.9,1.6,5.5,2.3,8.6,3.2.4.1.5-.2.4.6-11.2,2-20,10.4-23.4,21.1-.5,1.5-.7,3.1-1.1,4.7,0,.4.2.5-.6.4-1.6-11.4-9-20.9-19.8-25-1.4-.5-2.8-.8-4.3-1.2-.4-.1-.5.2-.4-.6,9.5-1.6,17.9-8.5,21.9-17.2,1.3-2.8,2-5.6,2.6-8.6,0-.4-.2-.5.6-.4h0Z"/>
  <path class="st0" d="M103.5,74.4c1.2,9.4,7.2,18.4,15.5,23,2.9,1.6,5.5,2.3,8.6,3.2.4.1.5-.2.4.6-11.2,2-20,10.4-23.4,21.1-.5,1.6-.7,3.1-1.1,4.7,0,.4.2.5-.6.4-1.6-11.4-9-20.9-19.8-25-1.4-.5-2.8-.8-4.3-1.2-.4-.1-.5.2-.4-.6,9.5-1.6,17.9-8.5,21.9-17.2,1.3-2.8,2-5.6,2.6-8.6,0-.4-.2-.5.6-.4h0Z"/>
</svg>