<?xml version="1.0" encoding="UTF-8"?>
<svg id="Layer_1" data-name="Layer 1" xmlns="http://www.w3.org/2000/svg" viewBox="0 0 1000 998.74">
  <defs>
    <style>
      .cls-1 {
        fill: #713500;
      }

      .cls-2 {
        fill: #fff;
      }
    </style>
  </defs>
  <rect class="cls-1" y="-.63" width="1000" height="1000"/>
  <g>
    <g>
      <path class="cls-2" d="M245.68,487.01l7.78-31.11c38.11,29.16,72.71,36.16,96.04,36.16,30.72,0,52.1-12.83,53.27-31.5,0-55.22-160.98-84.38-160.98-142.31,0-38.49,53.66-54.05,109.65-54.05,25.28,0,51.72,3.11,75.82,9.33l-5.05,31.11c-27.61-18.28-68.83-31.88-97.6-31.88s-48.22,9.33-48.22,28.77c0,37.72,157.87,68.05,157.87,137.26-1.16,45.88-52.1,63.38-101.87,63.38-29.55,0-60.66-5.84-86.71-15.16Z"/>
      <path class="cls-2" d="M451.39,383.97c0-73.1,42.38-119.76,112.37-119.76s112.38,46.66,112.38,119.76-43.94,118.21-112.38,118.21-112.37-45.89-112.37-118.21ZM631.81,383.97c0-54.05-24.5-113.93-68.05-113.93-45.88,0-68.04,59.88-68.04,113.93,0,57.16,22.16,112.37,68.04,112.37s68.05-55.22,68.05-112.37Z"/>
      <path class="cls-2" d="M708.04,224.15c0-14,11.27-25.27,25.28-25.27s24.89,11.27,24.89,25.27-10.89,24.89-24.89,24.89-25.28-10.88-25.28-24.89ZM709.98,495.56v-224.75h46.66v224.75h-46.66Z"/>
    </g>
    <g>
      <path class="cls-2" d="M246.29,719.01l5.88-23.49c28.78,22.02,54.91,27.31,72.53,27.31,23.2,0,39.34-9.69,40.23-23.79,0-41.7-121.56-63.72-121.56-107.47,0-29.07,40.52-40.81,82.8-40.81,19.09,0,39.05,2.35,57.26,7.05l-3.82,23.49c-20.85-13.8-51.97-24.08-73.7-24.08s-36.41,7.05-36.41,21.73c0,28.48,119.21,51.39,119.21,103.65-.88,34.65-39.34,47.86-76.93,47.86-22.32,0-45.81-4.41-65.48-11.45Z"/>
      <path class="cls-2" d="M719.05,776.27c-31.71,15.86-61.66,22.61-87.5,22.61-56.96,0-94.84-30.83-94.84-73.41l1.18-122.74c.29-24.96-12.33-38.47-28.19-38.47-21.43,0-52.56,30.83-59.02,96.9v64.3h-35.24v-206.13h35.24v113.64h.59c12.04-54.91,42.87-82.22,72.82-82.22,25.84,0,47.86,19.38,47.86,51.09v123.62c0,47.28,22.9,70.77,54.62,70.77,24.96,0,56.08-15.56,86.62-43.46l5.87,23.49Z"/>
      <path class="cls-2" d="M604.84,677.9v-122.15h35.23v135.07c0,21.73,11.45,32,25.55,32,24.66,0,50.51-31.71,55.79-76.93v-90.15h35.24v169.72h-35.24v-57.26h-.88c-11.74,39.64-35.53,61.96-63.72,61.96s-51.97-17.32-51.97-52.27Z"/>
    </g>
  </g>
</svg>