<?xml version="1.0" encoding="UTF-8"?>
<svg id="Layer_1" data-name="Layer 1" xmlns="http://www.w3.org/2000/svg" viewBox="0 0 858.74 998.74">
  <defs>
    <style>
      .cls-1 {
        fill: #713500;
      }
    </style>
  </defs>
  <g>
    <path class="cls-1" d="M6.46,479.14l12.94-51.73c63.37,48.49,120.91,60.13,159.71,60.13,51.08,0,86.64-21.34,88.58-52.38C267.7,343.34,0,294.85,0,198.5,0,134.49,89.23,108.63,182.34,108.63c42.03,0,86,5.18,126.09,15.52l-8.4,51.73c-45.91-30.4-114.45-53.02-162.3-53.02s-80.18,15.51-80.18,47.84c0,62.72,262.52,113.16,262.52,228.26-1.93,76.3-86.64,105.4-169.41,105.4-49.14,0-100.87-9.7-144.2-25.22Z"/>
    <path class="cls-1" d="M348.54,307.79c0-121.56,70.48-199.16,186.87-199.16s186.87,77.6,186.87,199.16-73.07,196.57-186.87,196.57-186.87-76.3-186.87-196.57ZM648.57,307.79c0-89.88-40.74-189.46-113.16-189.46-76.3,0-113.15,99.57-113.15,189.46,0,95.05,36.86,186.87,113.15,186.87s113.16-91.82,113.16-186.87Z"/>
    <path class="cls-1" d="M775.33,42.03c0-23.28,18.75-42.03,42.03-42.03s41.38,18.75,41.38,42.03-18.11,41.38-41.38,41.38-42.03-18.1-42.03-41.38ZM778.56,493.36V119.62h77.59v373.74h-77.59Z"/>
  </g>
  <g>
    <path class="cls-1" d="M7.47,864.95l9.77-39.06c47.85,36.62,91.31,45.41,120.61,45.41,38.57,0,65.43-16.12,66.89-39.55,0-69.34-202.15-105.96-202.15-178.71,0-48.34,67.38-67.87,137.69-67.87,31.74,0,64.94,3.91,95.22,11.72l-6.35,39.06c-34.67-22.95-86.43-40.04-122.56-40.04s-60.55,11.72-60.55,36.13c0,47.37,198.24,85.45,198.24,172.37-1.46,57.62-65.43,79.59-127.93,79.59-37.11,0-76.17-7.33-108.89-19.04Z"/>
    <path class="cls-1" d="M793.63,960.16c-52.74,26.37-102.54,37.6-145.51,37.6-94.73,0-157.72-51.27-157.72-122.07l1.96-204.1c.48-41.51-20.51-63.97-46.88-63.97-35.64,0-87.41,51.27-98.15,161.14v106.93h-58.6v-342.78h58.6v188.97h.98c20.02-91.31,71.29-136.72,121.09-136.72,42.97,0,79.59,32.23,79.59,84.96v205.57c0,78.62,38.09,117.68,90.82,117.68,41.5,0,93.26-25.88,144.04-72.27l9.76,39.06Z"/>
    <path class="cls-1" d="M603.71,796.59v-203.13h58.59v224.61c0,36.13,19.04,53.22,42.48,53.22,41.01,0,83.99-52.74,92.78-127.93v-149.91h58.6v282.23h-58.6v-95.22h-1.47c-19.53,65.92-59.08,103.03-105.96,103.03s-86.42-28.81-86.42-86.91Z"/>
  </g>
</svg>