<?xml version="1.0" encoding="UTF-8"?>
<svg id="Layer_1" data-name="Layer 1" xmlns="http://www.w3.org/2000/svg" viewBox="0 0 532.4 170.61">
  <defs>
    <style>
      .cls-1 {
        fill: #b26729;
      }
    </style>
  </defs>
  <path class="cls-1" d="M1.68,124.8l3.37-13.47c16.5,12.63,31.49,15.66,41.6,15.66,13.3,0,22.57-5.56,23.07-13.64C69.73,89.43,0,76.8,0,51.7c0-16.67,23.24-23.41,47.49-23.41,10.95,0,22.4,1.35,32.84,4.04l-2.19,13.47c-11.96-7.92-29.81-13.81-42.27-13.81s-20.88,4.04-20.88,12.46c0,16.34,68.38,29.47,68.38,59.45-.5,19.87-22.57,27.45-44.12,27.45-12.8,0-26.27-2.53-37.56-6.57Z"/>
  <path class="cls-1" d="M90.78,80.17c0-31.66,18.36-51.87,48.67-51.87s48.67,20.21,48.67,51.87-19.03,51.2-48.67,51.2-48.67-19.87-48.67-51.2ZM168.93,80.17c0-23.41-10.61-49.35-29.47-49.35-19.87,0-29.47,25.94-29.47,49.35,0,24.76,9.6,48.67,29.47,48.67s29.47-23.92,29.47-48.67Z"/>
  <path class="cls-1" d="M201.95,10.95c0-6.06,4.88-10.95,10.95-10.95s10.78,4.88,10.78,10.95-4.72,10.78-10.78,10.78-10.95-4.71-10.95-10.78ZM202.79,128.5V31.16h20.21v97.35h-20.21Z"/>
  <path class="cls-1" d="M239.67,124.8l3.37-13.47c16.5,12.63,31.49,15.66,41.6,15.66,13.3,0,22.57-5.56,23.07-13.64,0-23.92-69.73-36.55-69.73-61.64,0-16.67,23.24-23.41,47.49-23.41,10.95,0,22.4,1.35,32.84,4.04l-2.19,13.47c-11.96-7.92-29.81-13.81-42.27-13.81s-20.88,4.04-20.88,12.46c0,16.34,68.38,29.47,68.38,59.45-.5,19.87-22.57,27.45-44.12,27.45-12.8,0-26.27-2.53-37.56-6.57Z"/>
  <path class="cls-1" d="M510.83,157.64c-18.19,9.1-35.37,12.97-50.19,12.97-32.67,0-54.4-17.68-54.4-42.11l.68-70.4c.17-14.32-7.07-22.06-16.17-22.06-12.29,0-30.15,17.68-33.85,55.58v36.88h-20.21V10.27h20.21v65.18h.34c6.91-31.49,24.59-47.16,41.77-47.16,14.82,0,27.45,11.12,27.45,29.31v70.9c0,27.12,13.14,40.59,31.33,40.59,14.31,0,32.17-8.93,49.68-24.93l3.37,13.47Z"/>
  <path class="cls-1" d="M445.33,101.22V31.16h20.21v77.47c0,12.46,6.57,18.36,14.65,18.36,14.15,0,28.97-18.19,32-44.12V31.16h20.21v97.35h-20.21v-32.84h-.51c-6.74,22.74-20.38,35.54-36.55,35.54s-29.81-9.94-29.81-29.98Z"/>
</svg>