<?xml version="1.0" encoding="UTF-8"?>
<svg id="Layer_1" data-name="Layer 1" xmlns="http://www.w3.org/2000/svg" viewBox="0 0 2579.05 826.47">
  <defs>
    <style>
      .cls-1 {
        fill: #713500;
      }
    </style>
  </defs>
  <path class="cls-1" d="M8.14,604.56l16.32-65.25c79.93,61.18,152.54,75.86,201.52,75.86,64.43,0,109.33-26.93,111.76-66.07C337.79,433.22,0,372.03,0,250.44,0,169.69,112.58,137.04,230.05,137.04c53.04,0,108.51,6.54,159.08,19.57l-10.61,65.25c-57.94-38.37-144.41-66.9-204.76-66.9s-101.15,19.57-101.15,60.36c0,79.15,331.25,142.76,331.25,287.99-2.42,96.25-109.33,132.97-213.73,132.97-62.01,0-127.26-12.26-181.95-31.83l-.05.1Z"/>
  <path class="cls-1" d="M439.76,388.36c0-153.37,88.94-251.27,235.77-251.27s235.77,97.9,235.77,251.27-92.19,248.02-235.77,248.02-235.77-96.25-235.77-248.02ZM818.33,388.36c0-113.4-51.4-239.06-142.76-239.06-96.25,0-142.76,125.66-142.76,239.06,0,119.94,46.5,235.77,142.76,235.77s142.76-115.87,142.76-235.77Z"/>
  <path class="cls-1" d="M978.29,53.04c0-29.36,23.64-53.04,53.04-53.04s52.22,23.64,52.22,53.04-22.86,52.22-52.22,52.22-53.04-22.82-53.04-52.22ZM982.35,622.48V150.95h97.9v471.58h-97.9v-.05Z"/>
  <path class="cls-1" d="M1161.01,604.56l16.32-65.25c79.93,61.18,152.54,75.86,201.52,75.86,64.43,0,109.33-26.93,111.76-66.07,0-115.87-337.79-177.06-337.79-298.6,0-80.75,112.58-113.4,230.05-113.4,53.04,0,108.51,6.54,159.08,19.57l-10.61,65.25c-57.94-38.37-144.41-66.9-204.76-66.9s-101.15,19.57-101.15,60.36c0,79.15,331.25,142.76,331.25,287.99-2.42,96.25-109.33,132.97-213.73,132.97-62.01,0-127.26-12.26-181.95-31.83v.05Z"/>
  <path class="cls-1" d="M2474.56,763.64c-88.12,44.08-171.34,62.83-243.13,62.83-158.26,0-263.52-85.65-263.52-203.99l3.29-341.03c.82-69.37-34.25-106.86-78.33-106.86-59.54,0-146.05,85.65-163.98,269.24v178.65h-97.9V49.75h97.9v315.74h1.65c33.47-152.54,119.12-228.45,202.34-228.45,71.79,0,132.97,53.87,132.97,141.98v343.45c0,131.37,63.65,196.63,151.77,196.63,69.32,0,155.84-43.26,240.66-120.77l16.32,65.25-.05.05Z"/>
  <path class="cls-1" d="M2157.27,490.33V150.95h97.9v375.28c0,60.36,31.83,88.94,70.97,88.94,68.55,0,140.34-88.12,155.01-213.73v-250.49h97.9v471.58h-97.9v-159.08h-2.47c-32.65,110.16-98.72,172.16-177.06,172.16s-144.41-48.15-144.41-145.23l.05-.05Z"/>
</svg>