<?xml version="1.0" encoding="UTF-8"?>
<svg id="Layer_1" xmlns="http://www.w3.org/2000/svg" version="1.1" viewBox="0 0 512 512">
  <!-- Generator: Adobe Illustrator 29.5.1, SVG Export Plug-In . SVG Version: 2.1.0 Build 141)  -->
  <defs>
    <style>
      .st0 {
        fill: #713500;
        fill-rule: evenodd;
      }
    </style>
  </defs>
  <path class="st0" d="M365,107c44.4,10.3,61.4,36.3,82.7,72h-82.7v-72ZM105.6,182c8.7,0,15,4.2,15,14s-6.7,15-15,15H15c-8.3,0-15,6.7-15,15s6.7,15,15,15h135c8.4,0,15.1,6.7,15.1,15s-6.7,15-15,15H15c-8.3,0-15,6.7-15,15s6.7,15,15,15h33v45c0,8.3,6.7,15,15,15h30.2c5.4,26.5,28.8,46,56.3,46s51-19.5,56.3-46h152.3c5.4,26.5,28.8,46,56.3,46s51-19.5,56.3-46h26.2c8.3,0,15-6.7,15-15v-90c0-44-46.4-46.9-46.5-47h-115.5c-8.3,0-15-6.7-15-15v-90H63c-8.3,0-15,6.7-15,15v33h-18c-8.3,0-15,6.7-15,15s6.7,15,15,15h75.6ZM433.9,330.1c10.7,10.7,10.7,28.2,0,38.9-17.3,17.3-46.9,5-46.9-19.4s29.7-36.7,46.9-19.4ZM168.9,330.1c10.7,10.7,10.7,28.2,0,38.9-17.3,17.3-46.9,5-46.9-19.4s29.7-36.7,46.9-19.4Z"/>
</svg>