<?xml version="1.0" encoding="UTF-8"?>
<svg id="Layer_1" xmlns="http://www.w3.org/2000/svg" version="1.1" viewBox="0 0 512 512">
  <!-- Generator: Adobe Illustrator 29.5.1, SVG Export Plug-In . SVG Version: 2.1.0 Build 141)  -->
  <defs>
    <style>
      .st0 {
        fill: #713500;
      }
    </style>
  </defs>
  <path class="st0" d="M422.3,304c12.5-21.7,13.9-53.7,3.4-74.5-5.7-11.2-5.7-31.8,0-43,10.6-20.8,9.1-52.8-3.4-74.5-12.2-21.2-39.7-39.1-62.5-40.8-12.8-.9-30.7-11.2-37.7-21.7-12.7-19.1-41.1-33.5-66.1-33.5s-53.4,14.4-66.1,33.5c-6.9,10.4-24.9,20.8-37.7,21.7-22.8,1.7-50.3,19.6-62.5,40.8-12.5,21.7-13.9,53.7-3.4,74.5,5.7,11.2,5.7,31.8,0,43-10.6,20.8-9.1,52.8,3.4,74.5,9.5,16.5,28.1,30.8,46.6,37.3l-47.8,82.8c-3,5.1-2.8,11.4.3,16.4,3.1,5,9,7.8,14.6,7.5l47-3,20.9,42.1c2.6,5.3,7.9,8.7,13.8,8.9.2,0,.3,0,.5,0,5.7,0,11-3,13.9-8l51-88.4c1.9.2,3.7.4,5.6.4s3.7-.2,5.6-.4l51,88.4c2.9,5,8.2,8,13.9,8s.3,0,.5,0c5.9-.2,11.2-3.6,13.8-8.9l20.9-42.1,47,3c5.8.2,11.5-2.5,14.6-7.5,3.1-5,3.2-11.3.3-16.4l-47.8-82.8c18.5-6.5,37.2-20.8,46.6-37.2ZM186.7,446.1l-12.3-24.9c-2.9-5.8-8.9-9.1-15.4-8.9l-27.8,1.8,37.3-64.5c8.8,4.2,17.2,10.5,21.4,16.8,6.4,9.7,16.9,18.1,28.8,24.1l-32,55.5ZM246.3,261.8c-3.1,3.1-7.1,4.7-11.4,4.7s-8.4-1.7-11.4-4.7l-42.4-42.4c-3.1-3.1-4.7-7.1-4.7-11.4s1.7-8.4,4.7-11.4c3.1-3.1,7.1-4.7,11.4-4.7s8.4,1.7,11.4,4.7l30.9,30.9,73.3-73.3c3.1-3.1,7.1-4.7,11.5-4.7s8.4,1.7,11.5,4.7c3.1,3.1,4.7,7.1,4.7,11.4s-1.7,8.4-4.7,11.4l-84.8,84.8ZM380.8,414.1l-27.8-1.8c-6.4-.3-12.5,3.1-15.4,8.9l-12.3,24.9-32-55.5c12-6,22.4-14.4,28.8-24.1,4.2-6.4,12.6-12.7,21.4-16.9l37.3,64.5Z"/>
</svg>