<?xml version="1.0" encoding="UTF-8"?>
<svg id="Layer_1" xmlns="http://www.w3.org/2000/svg" version="1.1" viewBox="0 0 512 512">
  <!-- Generator: Adobe Illustrator 29.6.1, SVG Export Plug-In . SVG Version: 2.1.1 Build 9)  -->
  <defs>
    <style>
      .st0 {
        fill: #5a71bc;
      }
    </style>
  </defs>
  <path class="st0" d="M320,261.3h-64v46.7c0,2.9-2.4,5.3-5.3,5.3s-2.3-.4-3.2-1.1l-18.1-13.6-18.1,13.6c-2.4,1.8-5.7,1.3-7.5-1.1-.7-.9-1.1-2.1-1.1-3.2v-46.7h-64c-11.8,0-21.3,9.6-21.3,21.3v52.9l15.4-5.1c16.4-5.4,34.1-5.5,50.5-.1,0,0,66.8,21.9,67.1,22,11.6,4.1,21.3,12.4,27.2,23.2l58.9-8.7c1.6-.2,3.2-.3,4.8-.4v-83.7c0-11.8-9.6-21.3-21.3-21.3h0Z"/>
  <path class="st0" d="M371.5,406.6c-4.9-12.9-18.1-20.7-31.8-18.8l-77.3,11.5c-.1-12.1-7.8-22.9-19.3-26.9l-66.4-21.8c-12.1-3.9-25.1-3.9-37.1.1l-43.6,14.6v98.7c0,2-.2,4-.5,6l31-5.2c3.7-.6,7.4,0,10.8,1.6l32.7,16.4c17.7,8.9,38.2,10.4,57,4.1l126.2-42.1c15.4-5.1,23.7-21.8,18.6-37.2-.1-.3-.2-.7-.4-1h0Z"/>
  <rect class="st0" x="21.3" y="346.7" width="53.3" height="138.7" rx="21.3" ry="21.3"/>
  <path class="st0" d="M359.7,202.7h-110.4c-24.3,0-43.9-19.7-43.9-43.9s15.1-39.3,35.8-43.2l70.3-13.2c3.5-.7,6.4-3.1,7.8-6.4h-180.7c-11.8,0-21.3,9.6-21.3,21.3v90.7c0,11.8,9.6,21.3,21.3,21.3h224c11.8,0,21.3-9.6,21.3-21.3v-8.6c-7.9,2.1-16.1,3.2-24.3,3.3h0Z"/>
  <path class="st0" d="M416,149.3V53.3c0-1.6,0-3.1.3-4.7l-113.9-25.3c-16.9-4-34.7-2-50.2,5.7l-41.6,19.1c-9.7,4.9-18.3,11.8-25.1,20.4l-4.9,6.2h154.1c5.9,0,10.7,4.8,10.7,10.7s-.2,2.5-.6,3.6l-5,13.8c-3.9,10.6-13.1,18.4-24.2,20.5l-70.3,13.2c-12.3,2.3-20.4,14.1-18.1,26.3,2,10.7,11.4,18.5,22.3,18.5h110.4c10.5,0,20.9-2.2,30.5-6.5l27.9-12.5c-1.4-4.2-2.1-8.6-2.1-13h-.2,0Z"/>
  <path class="st0" d="M437.3,149.3c0,11.8,9.6,21.3,21.3,21.3h10.7c11.8,0,21.3-9.6,21.3-21.3V53.3c0-11.8-9.6-21.3-21.3-21.3h-10.7c-11.8,0-21.3,9.6-21.3,21.3"/>
</svg>